<svg width="126" height="25" viewBox="0 0 126 25" fill="none" xmlns="http://www.w3.org/2000/svg">
    <mask id="mask0_11_64" style="mask-type:luminance" maskUnits="userSpaceOnUse" x="0" y="0" width="126" height="25">
        <path d="M125.488 0.422974H0V24.5H125.488V0.422974Z" fill="white"/>
    </mask>
    <g mask="url(#mask0_11_64)">
        <path d="M35.9 11.898C35.3695 11.6605 34.822 11.4629 34.262 11.307L33.792 11.166C33.3284 11.0423 32.8784 10.8721 32.449 10.658C32.101 10.476 32.101 10.277 32.101 10.211C32.0963 10.1323 32.1169 10.0541 32.1597 9.98795C32.2025 9.92175 32.2653 9.87096 32.339 9.84298C32.7657 9.70446 33.214 9.64515 33.662 9.66798C34.4328 9.70845 35.1958 9.84278 35.934 10.068L36.174 10.133V7.81098L36.028 7.77598C35.2473 7.57202 34.4457 7.45894 33.639 7.43898C32.5867 7.36697 31.5364 7.60513 30.618 8.12398C30.2895 8.33973 30.0221 8.63642 29.8416 8.98548C29.661 9.33454 29.5733 9.72421 29.587 10.117C29.5753 10.7068 29.7492 11.2854 30.0843 11.771C30.4193 12.2566 30.8985 12.6246 31.454 12.823C32.0286 13.0813 32.6211 13.2976 33.227 13.47C33.6488 13.6016 34.0625 13.7579 34.466 13.938C34.701 14.038 34.731 14.164 34.731 14.26C34.7367 14.3644 34.7106 14.4681 34.6562 14.5573C34.6017 14.6466 34.5215 14.7173 34.426 14.76C34.0128 14.9215 33.568 14.9858 33.126 14.948C32.1163 14.8837 31.1226 14.6638 30.18 14.296L29.927 14.208V16.672L30.055 16.717C30.9991 17.0641 31.9944 17.2513 33 17.271C34.1065 17.3381 35.207 17.0652 36.154 16.489C36.5134 16.2478 36.8059 15.9196 37.0044 15.5349C37.2028 15.1502 37.3007 14.7216 37.289 14.289C37.3153 13.7519 37.1798 13.2192 36.9 12.76C36.6494 12.3897 36.3041 12.0934 35.9 11.902" fill="white"/>
        <path d="M39.729 3.152C39.5154 3.14931 39.3034 3.18943 39.1055 3.26998C38.9077 3.35053 38.728 3.46988 38.577 3.621C38.42 3.77124 38.2959 3.95246 38.2125 4.15317C38.1292 4.35389 38.0885 4.56972 38.093 4.787C38.0964 5.21984 38.2698 5.63399 38.5759 5.94007C38.882 6.24615 39.2961 6.4196 39.729 6.423C39.9471 6.42823 40.1639 6.38789 40.3656 6.30455C40.5672 6.22121 40.7492 6.0967 40.9 5.939C41.0511 5.78801 41.1705 5.60829 41.251 5.41044C41.3316 5.21259 41.3717 5.0006 41.369 4.787C41.3728 4.57116 41.3331 4.35676 41.2522 4.15661C41.1713 3.95647 41.0509 3.77467 40.8982 3.62207C40.7455 3.46947 40.5636 3.34919 40.3634 3.26843C40.1632 3.18767 39.9488 3.14807 39.733 3.152" fill="white"/>
        <path d="M41.057 7.58099H38.401V17.058H41.057V7.58099Z" fill="white"/>
        <path d="M49.239 8.25499C48.448 7.86019 47.576 7.65477 46.692 7.65499C45.936 7.64805 45.1899 7.82659 44.519 8.17499C43.8512 8.5287 43.2871 9.05013 42.882 9.68799C42.381 10.5598 42.1334 11.5541 42.167 12.559C42.1411 13.1854 42.2442 13.8104 42.4699 14.3952C42.6956 14.9801 43.0391 15.5124 43.479 15.959C43.9504 16.3976 44.5047 16.7375 45.1094 16.9586C45.7141 17.1798 46.3569 17.2779 47 17.247C47.3234 17.2494 47.6458 17.2118 47.96 17.135C48.187 17.076 48.467 16.984 48.796 16.861C48.8067 17.369 48.7358 17.8754 48.586 18.361C48.4428 18.7263 48.1731 19.028 47.826 19.211C47.2857 19.4876 46.6823 19.6176 46.076 19.588C45.3181 19.5458 44.5709 19.389 43.86 19.123L43.308 18.951L42.564 20.951L43.09 21.161C44.1137 21.5742 45.2091 21.7805 46.313 21.768C47.6917 21.8603 49.0528 21.4172 50.113 20.531C50.5636 20.0758 50.9136 19.5309 51.1401 18.9317C51.3666 18.3326 51.4647 17.6925 51.428 17.053V7.58099H49.219L49.239 8.25499ZM48.775 10.107V14.723C48.3608 14.9703 47.8853 15.0961 47.403 15.086C46.7277 15.1285 46.0619 14.9094 45.544 14.474C45.3157 14.2362 45.1399 13.9531 45.0279 13.643C44.9159 13.3329 44.8703 13.0028 44.894 12.674C44.894 10.763 45.694 9.83299 47.332 9.83299C47.8252 9.83983 48.3134 9.9322 48.775 10.106" fill="white"/>
        <path d="M59.772 8.26697C59.1129 7.76894 58.2962 7.52537 57.472 7.58097C56.4493 7.59427 55.4409 7.82362 54.513 8.25397V7.58097H52.232V17.057H54.864V10.323C56.496 9.74897 57.458 9.72297 57.95 10.3C58.2166 10.6555 58.3474 11.0945 58.319 11.538V17.058H60.951V11.823C60.9717 11.1005 60.8847 10.3789 60.693 9.68197C60.5214 9.13543 60.2027 8.64662 59.772 8.26897" fill="white"/>
        <path d="M69.042 8.30195C68.0792 7.64425 66.9188 7.33938 65.757 7.43895C65.2287 7.44775 64.7015 7.49185 64.179 7.57095C63.6401 7.63798 63.1087 7.75583 62.592 7.92295L62.463 7.96795V10.039L62.722 9.93895C63.1364 9.79543 63.5647 9.69621 64 9.64295C64.8916 9.4636 65.8106 9.46904 66.7 9.65895C66.8066 9.68955 66.9051 9.74347 66.9882 9.8168C67.0714 9.89013 67.1373 9.98104 67.181 10.083C67.2923 10.384 67.3412 10.7044 67.325 11.025L65.732 11.11C64.6955 11.1077 63.6818 11.414 62.82 11.99C62.4766 12.2471 62.2008 12.5839 62.0165 12.9714C61.8322 13.3588 61.7448 13.7852 61.762 14.214C61.7498 14.6126 61.8284 15.0087 61.9917 15.3725C62.1551 15.7363 62.399 16.0582 62.705 16.314C63.405 16.8674 64.2817 17.1487 65.173 17.106C66.0436 17.1253 66.9006 16.8877 67.637 16.423L67.655 17.054H70.068V11.112C70.1143 10.5969 70.0463 10.0781 69.869 9.59232C69.6916 9.1066 69.4092 8.666 69.042 8.30195ZM65.733 15.023C65.3792 15.0454 65.0278 14.9509 64.733 14.754C64.6252 14.6731 64.5389 14.5669 64.4817 14.4449C64.4245 14.3228 64.3982 14.1886 64.405 14.054C64.3977 13.9221 64.4253 13.7907 64.4852 13.673C64.5451 13.5553 64.6351 13.4556 64.746 13.384C65.1334 13.1771 65.5649 13.0663 66.004 13.061L67.41 12.961V14.587C67.1615 14.7364 66.8955 14.8546 66.618 14.939C66.3267 15.0046 66.0285 15.0345 65.73 15.028" fill="white"/>
        <path d="M74.33 15.113C74.2082 15.1274 74.0847 15.1102 73.9715 15.0629C73.8583 15.0155 73.7593 14.9398 73.684 14.843C73.5251 14.5405 73.4541 14.1997 73.479 13.859V3.64996H70.871V14.523C70.871 16.323 71.739 17.272 73.383 17.272C74.1184 17.2861 74.8465 17.1247 75.507 16.801L75.607 16.748V14.873L75.356 14.957C75.0235 15.0636 74.6761 15.1163 74.327 15.113" fill="white"/>
        <path d="M79.873 4.97595H77.218V7.58095H75.7V9.73995H77.216V13.717C77.1755 14.1703 77.2253 14.6272 77.3627 15.0611C77.5 15.4951 77.7221 15.8975 78.016 16.245C78.7663 16.841 79.718 17.1237 80.672 17.034C80.9815 17.0244 81.2897 16.991 81.594 16.934L82.994 16.59V14.49L82.757 14.549C82.2391 14.6941 81.7063 14.7797 81.169 14.804C80.281 14.804 79.869 14.443 79.869 13.668V9.73995H83.019V7.58095H79.869L79.873 4.97595Z" fill="white"/>
        <path d="M88.635 7.58096H88.422C87.3513 7.56164 86.2876 7.7561 85.293 8.15296C84.8283 8.32483 84.4287 8.63734 84.15 9.04696L84.22 8.85596C84.3024 8.67993 84.4318 8.53009 84.594 8.42296C84.8155 8.257 85.0642 8.13079 85.329 8.04996L86.512 7.67696H83.821L83.875 9.80496L83.896 9.74796C83.8781 9.87044 83.8704 9.9942 83.873 10.118V17.059H86.5V10.09C86.9967 9.91657 87.5231 9.8444 88.0481 9.87772C88.5731 9.91104 89.0862 10.0492 89.557 10.284L89.839 10.438V7.73796L89.686 7.70696C89.3387 7.63251 88.9851 7.59165 88.63 7.58496" fill="white"/>
        <path d="M97.983 8.30199C97.0207 7.64489 95.861 7.34006 94.7 7.43899C94.172 7.44784 93.6451 7.49194 93.123 7.57099C92.5841 7.63824 92.0528 7.75609 91.536 7.92299L91.407 7.96799V10.038L91.666 9.93799C92.0789 9.7935 92.506 9.69294 92.94 9.63799C93.8316 9.45867 94.7505 9.46411 95.64 9.65399C95.7468 9.68476 95.8454 9.73884 95.9287 9.81234C96.0121 9.88583 96.0781 9.9769 96.122 10.079C96.2324 10.3799 96.2811 10.6999 96.265 11.02L94.672 11.105C93.6355 11.1027 92.6218 11.4091 91.76 11.985C91.4166 12.2422 91.1409 12.579 90.9566 12.9665C90.7723 13.3539 90.6849 13.7803 90.702 14.209C90.6898 14.6076 90.7684 15.0038 90.9317 15.3676C91.0951 15.7314 91.339 16.0533 91.645 16.309C92.345 16.8624 93.2217 17.1438 94.113 17.101C94.9833 17.1214 95.8405 16.8857 96.578 16.423L96.596 17.053H99.009V11.112C99.0553 10.597 98.9873 10.0781 98.8099 9.59236C98.6326 9.10663 98.3502 8.66603 97.983 8.30199ZM94.674 15.023C94.3202 15.0454 93.9688 14.9509 93.674 14.754C93.5662 14.6731 93.4799 14.567 93.4227 14.4449C93.3655 14.3228 93.3392 14.1886 93.346 14.054C93.3386 13.9222 93.3663 13.7907 93.4262 13.673C93.4861 13.5554 93.5761 13.4556 93.687 13.384C94.0747 13.177 94.5065 13.0662 94.946 13.061L96.346 12.961V14.587C96.0976 14.7366 95.8315 14.8549 95.554 14.939C95.2627 15.0047 94.9645 15.0345 94.666 15.028" fill="white"/>
        <path d="M104.716 7.43899C103.404 7.36784 102.117 7.81129 101.127 8.67499C100.678 9.12643 100.328 9.66734 100.102 10.2626C99.8754 10.8578 99.7766 11.4941 99.812 12.13C99.7847 12.7848 99.8899 13.4385 100.121 14.0517C100.352 14.665 100.705 15.2253 101.158 15.699C101.627 16.1563 102.185 16.5128 102.796 16.7465C103.408 16.9802 104.062 17.0862 104.716 17.058C105.639 17.0662 106.554 16.901 107.416 16.571L107.537 16.523V14.33L107.287 14.411C106.706 14.6 106.278 14.725 106.013 14.786C105.712 14.8495 105.404 14.8797 105.096 14.876C104.75 14.8937 104.404 14.8353 104.082 14.7049C103.761 14.5744 103.472 14.3751 103.236 14.121C102.757 13.5714 102.506 12.8588 102.536 12.13C102.51 11.7865 102.554 11.4413 102.664 11.1149C102.774 10.7885 102.948 10.4876 103.177 10.23C103.707 9.77432 104.395 9.54706 105.092 9.59799C105.4 9.59446 105.707 9.62464 106.008 9.68799C106.281 9.75099 106.708 9.87699 107.283 10.062L107.533 10.143V7.95299L107.416 7.90399C106.555 7.57266 105.638 7.41463 104.716 7.43899Z" fill="white"/>
        <path d="M117.635 7.58096H114.384L110.993 11.623V3.64996H108.337V17.058H110.993V12.133L114.541 17.058H117.763L113.963 11.878L117.635 7.58096Z" fill="white"/>
        <path d="M125.1 12.756C124.849 12.3861 124.504 12.0899 124.1 11.898C123.569 11.6607 123.022 11.4631 122.462 11.307L121.992 11.166C121.528 11.0423 121.078 10.8721 120.649 10.658C120.301 10.476 120.301 10.277 120.301 10.211C120.296 10.1323 120.317 10.0542 120.36 9.98807C120.403 9.92191 120.465 9.87109 120.539 9.84297C120.966 9.70446 121.415 9.64515 121.863 9.66797C122.633 9.70855 123.396 9.84287 124.134 10.068L124.375 10.133V7.81097L124.228 7.77597C123.447 7.57202 122.646 7.45893 121.839 7.43897C120.786 7.36718 119.736 7.60532 118.817 8.12397C118.489 8.33991 118.222 8.63667 118.041 8.9857C117.861 9.33474 117.773 9.72432 117.787 10.117C117.775 10.7063 117.948 11.2845 118.283 11.7701C118.617 12.2556 119.095 12.6239 119.65 12.823C120.224 13.0818 120.817 13.298 121.423 13.47C121.845 13.6016 122.258 13.7579 122.662 13.938C122.897 14.038 122.927 14.164 122.927 14.26C122.933 14.3645 122.906 14.4683 122.852 14.5575C122.797 14.6468 122.717 14.7174 122.621 14.76C122.208 14.9225 121.763 14.9872 121.321 14.949C120.311 14.8844 119.317 14.6641 118.375 14.296L118.122 14.208V16.672L118.25 16.717C119.196 17.0654 120.194 17.2533 121.202 17.273C122.308 17.3403 123.409 17.0674 124.356 16.491C124.715 16.2498 125.008 15.9215 125.206 15.5369C125.405 15.1522 125.503 14.7236 125.491 14.291C125.517 13.7539 125.382 13.2212 125.102 12.762" fill="white"/>
        <path d="M12.038 12.461V18.475L6.014 24.499H0V18.475L6.014 12.461H12.038Z" fill="white"/>
        <path d="M12.038 0.422974V6.43697L6.014 12.461H0V6.43697L6.014 0.422974H12.038Z" fill="white"/>
        <path d="M24.077 12.461V18.475L18.053 24.499H12.039V18.475L18.053 12.461H24.077Z" fill="white"/>
        <path d="M24.077 0.422974V6.43697L18.053 12.461H12.039V6.43697L18.053 0.422974H24.077Z" fill="white"/>
    </g>
</svg>
