<svg width="24" height="24" viewBox="0 0 24 24" fill="none" xmlns="http://www.w3.org/2000/svg">
    <path d="M12 1.76001C6.35333 1.76001 1.76001 6.35333 1.76001 12C1.76001 17.6467 6.35333 22.24 12 22.24C17.6467 22.24 22.24 17.6459 22.24 12C22.24 6.35413 17.6467 1.76001 12 1.76001ZM12 20.6536C7.22901 20.6536 3.34637 16.7718 3.34637 12C3.34637 7.22821 7.22901 3.34637 12 3.34637C16.771 3.34637 20.6536 7.22821 20.6536 12C20.6536 16.7718 16.7718 20.6536 12 20.6536Z" fill="currentColor"/>
    <path d="M15.9659 11.1355H12.7932V7.96276C12.7932 7.52492 12.4386 7.16956 12 7.16956C11.5613 7.16956 11.2068 7.52492 11.2068 7.96276V11.1355H8.03404C7.5954 11.1355 7.24084 11.4908 7.24084 11.9287C7.24084 12.3665 7.5954 12.7219 8.03404 12.7219H11.2068V15.8946C11.2068 16.3324 11.5613 16.6878 12 16.6878C12.4386 16.6878 12.7932 16.3324 12.7932 15.8946V12.7219H15.9659C16.4045 12.7219 16.7591 12.3665 16.7591 11.9287C16.7591 11.4908 16.4045 11.1355 15.9659 11.1355Z" fill="currentColor"/>
</svg>
