<svg width="24" height="24" viewBox="0 0 24 24" fill="none" xmlns="http://www.w3.org/2000/svg">
    <path d="M11.31 15.8488C11.3777 15.9164 11.4313 15.9966 11.4679 16.0848C11.5045 16.1731 11.5233 16.2678 11.5233 16.3633C11.5233 16.4589 11.5045 16.5535 11.4679 16.6418C11.4313 16.7301 11.3777 16.8103 11.31 16.8778L8.4011 19.7867C8.33356 19.8543 8.25336 19.908 8.16507 19.9446C8.07679 19.9812 7.98215 20 7.88658 20C7.79101 20 7.69638 19.9812 7.6081 19.9446C7.51981 19.908 7.4396 19.8543 7.37206 19.7867L4.46312 16.8778C4.39555 16.8103 4.34196 16.7301 4.30539 16.6418C4.26882 16.5535 4.25 16.4589 4.25 16.3633C4.25 16.2678 4.26882 16.1732 4.30539 16.0849C4.34196 15.9966 4.39555 15.9164 4.46312 15.8488C4.59958 15.7124 4.78466 15.6357 4.97764 15.6357C5.0732 15.6357 5.16781 15.6545 5.2561 15.6911C5.34438 15.7277 5.42459 15.7812 5.49216 15.8488L7.15935 17.5169V4.72779C7.15935 4.53492 7.23597 4.34995 7.37235 4.21357C7.50873 4.07719 7.69371 4.00057 7.88658 4.00057C8.07946 4.00057 8.26443 4.07719 8.40082 4.21357C8.5372 4.34995 8.61382 4.53492 8.61382 4.72779V17.5169L10.281 15.8488C10.3485 15.7812 10.4288 15.7276 10.517 15.691C10.6053 15.6544 10.7 15.6355 10.7955 15.6355C10.8911 15.6355 10.9857 15.6544 11.074 15.691C11.1623 15.7276 11.2425 15.7812 11.31 15.8488ZM20.0369 7.12217L17.1279 4.21328C17.0604 4.14567 16.9802 4.09203 16.8919 4.05543C16.8036 4.01884 16.709 4 16.6134 4C16.5178 4 16.4232 4.01884 16.3349 4.05543C16.2466 4.09203 16.1664 4.14567 16.0989 4.21328L13.19 7.12217C13.0535 7.25862 12.9768 7.4437 12.9768 7.63668C12.9768 7.82965 13.0535 8.01473 13.19 8.15119C13.3264 8.28764 13.5115 8.3643 13.7045 8.3643C13.8975 8.3643 14.0825 8.28764 14.219 8.15119L15.8862 6.48312V19.2722C15.8862 19.4651 15.9628 19.6501 16.0992 19.7864C16.2356 19.9228 16.4205 19.9994 16.6134 19.9994C16.8063 19.9994 16.9913 19.9228 17.1276 19.7864C17.264 19.6501 17.3407 19.4651 17.3407 19.2722V6.48312L19.0078 8.15119C19.1443 8.28764 19.3294 8.3643 19.5224 8.3643C19.7153 8.3643 19.9004 8.28764 20.0369 8.15119C20.1733 8.01473 20.25 7.82965 20.25 7.63668C20.25 7.4437 20.1733 7.25862 20.0369 7.12217Z" fill="currentColor"/>
</svg>
