<svg width="24" height="24" viewBox="0 0 24 24" fill="none" xmlns="http://www.w3.org/2000/svg">
    <path d="M12.5 13.25C12.2033 13.25 11.9133 13.162 11.6666 12.9972C11.42 12.8324 11.2277 12.5981 11.1142 12.324C11.0006 12.0499 10.9709 11.7483 11.0288 11.4574C11.0867 11.1664 11.2296 10.8991 11.4393 10.6893C11.6491 10.4796 11.9164 10.3367 12.2074 10.2788C12.4983 10.2209 12.7999 10.2506 13.074 10.3642C13.3481 10.4777 13.5824 10.67 13.7472 10.9166C13.912 11.1633 14 11.4533 14 11.75C14 12.1478 13.842 12.5294 13.5607 12.8107C13.2794 13.092 12.8978 13.25 12.5 13.25ZM14 5.375C14 5.07833 13.912 4.78832 13.7472 4.54165C13.5824 4.29497 13.3481 4.10271 13.074 3.98918C12.7999 3.87565 12.4983 3.84594 12.2074 3.90382C11.9164 3.9617 11.6491 4.10456 11.4393 4.31434C11.2296 4.52412 11.0867 4.79139 11.0288 5.08237C10.9709 5.37334 11.0006 5.67494 11.1142 5.94903C11.2277 6.22311 11.42 6.45738 11.6666 6.62221C11.9133 6.78703 12.2033 6.875 12.5 6.875C12.8978 6.875 13.2794 6.71697 13.5607 6.43566C13.842 6.15436 14 5.77283 14 5.375ZM14 18.125C14 17.8283 13.912 17.5383 13.7472 17.2916C13.5824 17.045 13.3481 16.8527 13.074 16.7392C12.7999 16.6257 12.4983 16.5959 12.2074 16.6538C11.9164 16.7117 11.6491 16.8546 11.4393 17.0643C11.2296 17.2741 11.0867 17.5414 11.0288 17.8324C10.9709 18.1233 11.0006 18.4249 11.1142 18.699C11.2277 18.9731 11.42 19.2074 11.6666 19.3722C11.9133 19.537 12.2033 19.625 12.5 19.625C12.8978 19.625 13.2794 19.467 13.5607 19.1857C13.842 18.9044 14 18.5228 14 18.125Z" fill="currentColor"/>
</svg>
