<svg width="24" height="16" viewBox="0 0 24 16" fill="none" xmlns="http://www.w3.org/2000/svg">
    <path d="M12 15.5C4.14879 15.5 0.256291 8.6555 0.0944788 8.36431C0.0325173 8.25285 0 8.12743 0 7.99991C0 7.87238 0.0325173 7.74696 0.0944788 7.6355C0.256291 7.3445 4.14879 0.5 12 0.5C19.8512 0.5 23.7437 7.3445 23.9055 7.63569C23.9674 7.74715 24 7.87257 24 8.00009C24 8.12762 23.9674 8.25304 23.9055 8.3645C23.7437 8.6555 19.8512 15.5 12 15.5ZM1.63254 7.99887C2.52467 9.35094 6.02735 14 12 14C17.9915 14 21.4787 9.35469 22.3674 8.00112C21.4753 6.64906 17.9726 2 12 2C6.00842 2 2.52129 6.64531 1.63254 7.99887ZM12 12.5C9.5186 12.5 7.49998 10.4814 7.49998 8C7.49998 5.51863 9.5186 3.5 12 3.5C14.4814 3.5 16.5 5.51863 16.5 8C16.5 10.4814 14.4814 12.5 12 12.5ZM12 5C10.3459 5 8.99998 6.34588 8.99998 8C8.99998 9.65412 10.3459 11 12 11C13.6541 11 15 9.65412 15 8C15 6.34588 13.6541 5 12 5Z" fill="currentColor"/>
</svg>
