<svg width="24" height="24" viewBox="0 0 24 24" fill="none" xmlns="http://www.w3.org/2000/svg">
    <path d="M14 8.17647C13.8232 8.17647 13.6536 8.1021 13.5286 7.96972C13.4036 7.83734 13.3333 7.6578 13.3333 7.47059V6.41176H10.6667V7.47059C10.6667 7.6578 10.5964 7.83734 10.4714 7.96972C10.3464 8.1021 10.1768 8.17647 10 8.17647C9.82319 8.17647 9.65362 8.1021 9.5286 7.96972C9.40357 7.83734 9.33333 7.6578 9.33333 7.47059V6.41176C9.33333 5.63318 9.93133 5 10.6667 5H13.3333C14.0687 5 14.6667 5.63318 14.6667 6.41176V7.47059C14.6667 7.6578 14.5964 7.83734 14.4714 7.96972C14.3464 8.1021 14.1768 8.17647 14 8.17647ZM12.4733 14.4447C12.1529 14.5613 11.8041 14.5563 11.4867 14.4306L4 11.7906V17.1765C4 18.2494 4.82 19.1176 5.83333 19.1176H18.1667C19.18 19.1176 20 18.2494 20 17.1765V11.7906L12.4733 14.4447Z" fill="currentColor"/>
    <path d="M20 9.05882V10.6753L12.16 13.4424C12.1067 13.4635 12.0533 13.4706 12 13.4706C11.9467 13.4706 11.8933 13.4635 11.84 13.4424L4 10.6753V9.05882C4 7.98588 4.82 7.11765 5.83333 7.11765H18.1667C19.18 7.11765 20 7.98588 20 9.05882Z" fill="currentColor"/>
</svg>
