<svg xmlns="http://www.w3.org/2000/svg" width="24" height="24" viewBox="0 0 24 24" fill="none">
    <path d="M13.25 11.5C13.25 11.7967 13.162 12.0867 12.9972 12.3334C12.8324 12.58 12.5981 12.7723 12.324 12.8858C12.0499 12.9994 11.7483 13.0291 11.4574 12.9712C11.1664 12.9133 10.8991 12.7704 10.6893 12.5607C10.4796 12.3509 10.3367 12.0836 10.2788 11.7926C10.2209 11.5017 10.2506 11.2001 10.3642 10.926C10.4777 10.6519 10.67 10.4176 10.9166 10.2528C11.1633 10.088 11.4533 10 11.75 10C12.1478 10 12.5294 10.158 12.8107 10.4393C13.092 10.7206 13.25 11.1022 13.25 11.5ZM5.375 10C5.07833 10 4.78832 10.088 4.54165 10.2528C4.29497 10.4176 4.10271 10.6519 3.98918 10.926C3.87565 11.2001 3.84594 11.5017 3.90382 11.7926C3.9617 12.0836 4.10456 12.3509 4.31434 12.5607C4.52412 12.7704 4.79139 12.9133 5.08237 12.9712C5.37334 13.0291 5.67494 12.9994 5.94903 12.8858C6.22311 12.7723 6.45738 12.58 6.62221 12.3334C6.78703 12.0867 6.875 11.7967 6.875 11.5C6.875 11.1022 6.71697 10.7206 6.43566 10.4393C6.15436 10.158 5.77283 10 5.375 10ZM18.125 10C17.8283 10 17.5383 10.088 17.2916 10.2528C17.045 10.4176 16.8527 10.6519 16.7392 10.926C16.6257 11.2001 16.5959 11.5017 16.6538 11.7926C16.7117 12.0836 16.8546 12.3509 17.0643 12.5607C17.2741 12.7704 17.5414 12.9133 17.8324 12.9712C18.1233 13.0291 18.4249 12.9994 18.699 12.8858C18.9731 12.7723 19.2074 12.58 19.3722 12.3334C19.537 12.0867 19.625 11.7967 19.625 11.5C19.625 11.1022 19.467 10.7206 19.1857 10.4393C18.9044 10.158 18.5228 10 18.125 10Z" fill="currentColor"/>
</svg>