<svg width="24" height="24" viewBox="0 0 24 24" fill="none" xmlns="http://www.w3.org/2000/svg">
    <path fill-rule="evenodd" clip-rule="evenodd" d="M14.0708 15.0452C12.8327 16.0344 11.2628 16.5121 9.68358 16.38C8.10433 16.2479 6.6356 15.516 5.57905 14.3348C4.52249 13.1535 3.95832 11.6126 4.0024 10.0283C4.04648 8.44407 4.69546 6.93683 5.81606 5.81617C6.93666 4.6955 8.44381 4.04648 10.028 4.0024C11.6121 3.95832 13.153 4.52252 14.3342 5.57914C15.5154 6.63575 16.2472 8.10456 16.3793 9.68391C16.5114 11.2632 16.0338 12.8332 15.0445 14.0714L19.7807 18.807C19.8484 18.87 19.9027 18.9461 19.9404 19.0306C19.978 19.1151 19.9983 19.2064 19.9999 19.2989C20.0015 19.3914 19.9845 19.4833 19.9499 19.5691C19.9152 19.6548 19.8636 19.7328 19.7982 19.7982C19.7328 19.8636 19.6549 19.9152 19.5691 19.9499C19.4833 19.9845 19.3914 20.0015 19.2989 19.9999C19.2064 19.9983 19.1152 19.978 19.0307 19.9404C18.9462 19.9027 18.8701 19.8484 18.807 19.7807L14.0708 15.0452ZM6.79015 13.6102C6.11595 12.9359 5.65676 12.0769 5.47062 11.1417C5.28448 10.2064 5.37974 9.23703 5.74436 8.35594C6.10898 7.47484 6.72659 6.72162 7.51915 6.19145C8.31171 5.66129 9.24363 5.37799 10.1971 5.37734C11.1507 5.3767 12.083 5.65875 12.8762 6.18785C13.6695 6.71695 14.2881 7.46934 14.6539 8.34994C15.0197 9.23055 15.1163 10.1998 14.9314 11.1353C14.7465 12.0708 14.2885 12.9304 13.6152 13.6057L13.6106 13.6102L13.606 13.6139C12.7013 14.5166 11.4753 15.0232 10.1973 15.0225C8.91935 15.0219 7.69389 14.5139 6.79015 13.6102Z" fill="currentColor"/>
</svg>
