<svg width="20" height="15" viewBox="0 0 20 15" fill="none" xmlns="http://www.w3.org/2000/svg">
    <path d="M12.483 7.66848L13.6189 6.53254C13.7016 6.84176 13.75 7.16504 13.75 7.50004C13.75 9.56786 12.0678 11.25 9.99999 11.25C9.66499 11.25 9.34171 11.2016 9.03249 11.119L10.1684 9.98301C10.7688 9.94223 11.3342 9.68529 11.7597 9.25975C12.1852 8.83421 12.4422 8.2689 12.483 7.66848ZM19.9212 7.19645C19.8444 7.05817 18.7541 5.1477 16.6228 3.52863L15.7133 4.43817C17.2673 5.58082 18.252 6.91348 18.6397 7.50098C17.8989 8.62895 14.993 12.5 9.99999 12.5C9.25124 12.5 8.55499 12.4043 7.89983 12.2515L6.8728 13.2785C7.81702 13.568 8.85483 13.75 9.99999 13.75C16.5426 13.75 19.7864 8.04629 19.9212 7.80364C19.9729 7.71079 20 7.60629 20 7.50004C20 7.39379 19.9729 7.2893 19.9212 7.19645ZM17.3169 1.06691L3.56686 14.8169C3.44483 14.939 3.28483 15 3.12498 15C2.96514 15 2.80514 14.939 2.68311 14.8169C2.62504 14.7589 2.57897 14.69 2.54753 14.6142C2.5161 14.5384 2.49992 14.4571 2.49992 14.375C2.49992 14.293 2.5161 14.2117 2.54753 14.1359C2.57897 14.0601 2.62504 13.9912 2.68311 13.9332L4.43249 12.1838C1.60436 10.4765 0.167326 7.96317 0.0787323 7.80364C0.0270977 7.71075 0 7.60624 0 7.49996C0 7.39369 0.0270977 7.28918 0.0787323 7.19629C0.213576 6.95379 3.45733 1.25004 9.99999 1.25004C11.6917 1.25004 13.157 1.63598 14.4097 2.2066L16.4331 0.183164C16.6773 -0.0610547 17.0728 -0.0610547 17.3169 0.183164C17.5609 0.427383 17.5611 0.822852 17.3169 1.06691ZM5.36452 11.2518L6.94686 9.66942C6.50983 9.05629 6.24999 8.30864 6.24999 7.50004C6.24999 5.43223 7.93217 3.75004 9.99999 3.75004C10.8086 3.75004 11.5562 4.00988 12.1694 4.44676L13.4489 3.16723C12.438 2.76238 11.2892 2.50004 9.99999 2.50004C5.00702 2.50004 2.10108 6.37114 1.36045 7.49911C1.83076 8.21192 3.18264 10.0163 5.36452 11.2518ZM7.85421 8.76192L11.2619 5.35426C10.8901 5.13473 10.4622 5.00004 9.99999 5.00004C8.62155 5.00004 7.49999 6.1216 7.49999 7.50004C7.49999 7.96223 7.63467 8.3902 7.85421 8.76192Z" fill="currentColor"/>
</svg>
