<svg width="22" height="24" viewBox="0 0 22 24" fill="none" xmlns="http://www.w3.org/2000/svg">
    <path d="M20.2821 8.58468H19.7059V5.80378C19.7059 5.78631 19.7031 5.76898 19.7008 5.75125C19.6999 5.64095 19.6647 5.53239 19.5891 5.4466L14.9618 0.160951C14.9605 0.159463 14.9581 0.157668 14.9581 0.157668C14.9306 0.126721 14.8984 0.101114 14.8644 0.0790529C14.8544 0.0724492 14.8441 0.0663286 14.8336 0.0607123C14.8041 0.0445467 14.7729 0.0314487 14.7407 0.0216236C14.732 0.0193474 14.7242 0.0157581 14.7155 0.0133943C14.6805 0.00516514 14.6442 0 14.6075 0H3.23526C2.71595 0 2.29411 0.42236 2.29411 0.941194V8.58442H1.71794C0.975032 8.58442 0.372681 9.18655 0.372681 9.92954V16.9248C0.372681 17.6674 0.975032 18.2702 1.71794 18.2702H2.29411V23.0588C2.29411 23.5777 2.71595 24 3.23526 24H18.7647C19.2835 24 19.7059 23.5777 19.7059 23.0588V18.2702H20.2821C21.0248 18.2702 21.6272 17.6678 21.6272 16.9251V9.92981C21.6272 9.1866 21.0248 8.58468 20.2821 8.58468ZM3.23526 0.941194H14.1369V5.75642C14.1369 6.01643 14.3478 6.22701 14.6075 6.22701H18.7647V8.58464H3.23526V0.941194ZM10.3203 13.7086C9.15246 13.3019 8.39156 12.6558 8.39156 11.6343C8.39156 10.4348 9.39224 9.51712 11.05 9.51712C11.8426 9.51712 12.4265 9.68394 12.8433 9.87198L12.4891 11.1545C12.2077 11.0185 11.7073 10.8204 11.0188 10.8204C10.3309 10.8204 9.99722 11.1334 9.99722 11.4983C9.99722 11.9468 10.3932 12.1447 11.3008 12.4889C12.5413 12.9476 13.1252 13.5937 13.1252 14.5845C13.1252 15.7623 12.2182 16.7637 10.2891 16.7637C9.48644 16.7637 8.69368 16.5547 8.29763 16.3361L8.62067 15.0222C9.04841 15.2417 9.70513 15.4602 10.3831 15.4602C11.1128 15.4602 11.4988 15.1578 11.4988 14.6987C11.4986 14.2606 11.1647 14.0106 10.3203 13.7086ZM2.04102 13.2495C2.04102 10.8517 3.75138 9.51712 5.87785 9.51712C6.70173 9.51712 7.32728 9.68394 7.609 9.83005L7.28543 11.0914C6.96239 10.9564 6.51364 10.8314 5.95077 10.8314C4.68916 10.8314 3.70936 11.592 3.70936 13.1557C3.70936 14.5633 4.54327 15.4494 5.96171 15.4494C6.44089 15.4494 6.97272 15.3453 7.28543 15.2201L7.52544 16.4609C7.23339 16.6071 6.57671 16.7637 5.72166 16.7637C3.2923 16.7638 2.04102 15.2513 2.04102 13.2495ZM18.7647 22.8037H3.23526V18.2702H18.7647V22.8037ZM17.7135 16.659H15.8576L13.6055 9.63198H15.347L16.2017 12.6039C16.4416 13.4376 16.6604 14.2403 16.8276 15.1163H16.8587C17.0359 14.2715 17.2546 13.4375 17.4945 12.6347L18.3913 9.63198H20.0808L17.7135 16.659Z" fill="currentColor"/>
</svg>
